<svg width="111" height="45" viewBox="0 0 111 45" fill="none" xmlns="http://www.w3.org/2000/svg">
<path d="M8.35976 16.7539V39.8691C8.35976 41.4707 7.9789 42.6816 7.21719 43.502C6.45547 44.3223 5.48867 44.7324 4.3168 44.7324C3.14492 44.7324 2.18789 44.3125 1.4457 43.4727C0.723045 42.6328 0.361717 41.4316 0.361717 39.8691V16.9883C0.361717 15.4062 0.723045 14.2148 1.4457 13.4141C2.18789 12.6133 3.14492 12.2129 4.3168 12.2129C5.48867 12.2129 6.45547 12.6133 7.21719 13.4141C7.9789 14.2148 8.35976 15.3281 8.35976 16.7539ZM4.40469 8.49219C3.2914 8.49219 2.33437 8.15039 1.53359 7.4668C0.752342 6.7832 0.361717 5.81641 0.361717 4.56641C0.361717 3.43359 0.762108 2.50586 1.56289 1.7832C2.3832 1.04102 3.33047 0.669922 4.40469 0.669922C5.43984 0.669922 6.35781 1.00195 7.15859 1.66602C7.95937 2.33008 8.35976 3.29688 8.35976 4.56641C8.35976 5.79688 7.96914 6.76367 7.18789 7.4668C6.40664 8.15039 5.4789 8.49219 4.40469 8.49219ZM46.1082 7.75977H26.5086V18.3066H44.5555C45.8836 18.3066 46.8699 18.6094 47.5145 19.2148C48.1785 19.8008 48.5105 20.582 48.5105 21.5586C48.5105 22.5352 48.1883 23.3359 47.5437 23.9609C46.8992 24.5664 45.9031 24.8691 44.5555 24.8691H26.5086V37.0859H46.782C48.1492 37.0859 49.1746 37.4082 49.8582 38.0527C50.5613 38.6777 50.9129 39.5176 50.9129 40.5723C50.9129 41.5879 50.5613 42.418 49.8582 43.0625C49.1746 43.6875 48.1492 44 46.782 44H23.1395C21.2449 44 19.8777 43.5801 19.0379 42.7402C18.2176 41.9004 17.8074 40.543 17.8074 38.668V6.38281C17.8074 5.13281 17.993 4.11719 18.3641 3.33594C18.7352 2.53516 19.3113 1.95898 20.0926 1.60742C20.8934 1.23633 21.909 1.05078 23.1395 1.05078H46.1082C47.4949 1.05078 48.5203 1.36328 49.1844 1.98828C49.868 2.59375 50.2098 3.39453 50.2098 4.39062C50.2098 5.40625 49.868 6.22656 49.1844 6.85156C48.5203 7.45703 47.4949 7.75977 46.1082 7.75977ZM78.0852 40.2207C76.1516 41.7246 74.2766 42.8574 72.4602 43.6191C70.6633 44.3613 68.6418 44.7324 66.3957 44.7324C64.3449 44.7324 62.5383 44.332 60.9758 43.5312C59.4328 42.7109 58.2414 41.6074 57.4016 40.2207C56.5617 38.834 56.1418 37.3301 56.1418 35.709C56.1418 33.5215 56.8352 31.6562 58.2219 30.1133C59.6086 28.5703 61.5129 27.5352 63.9348 27.0078C64.4426 26.8906 65.7023 26.627 67.7141 26.2168C69.7258 25.8066 71.4445 25.4355 72.8703 25.1035C74.3156 24.752 75.8781 24.332 77.5578 23.8438C77.4602 21.7344 77.0305 20.1914 76.2687 19.2148C75.5266 18.2188 73.9738 17.7207 71.6105 17.7207C69.5793 17.7207 68.0461 18.0039 67.0109 18.5703C65.9953 19.1367 65.1164 19.9863 64.3742 21.1191C63.6516 22.252 63.134 23.0039 62.8215 23.375C62.5285 23.7266 61.884 23.9023 60.8879 23.9023C59.9895 23.9023 59.2082 23.6191 58.5441 23.0527C57.8996 22.4668 57.5773 21.7246 57.5773 20.8262C57.5773 19.4199 58.0754 18.0527 59.0715 16.7246C60.0676 15.3965 61.6203 14.3027 63.7297 13.4434C65.8391 12.584 68.466 12.1543 71.6105 12.1543C75.1262 12.1543 77.8898 12.5742 79.9016 13.4141C81.9133 14.2344 83.3293 15.543 84.1496 17.3398C84.9895 19.1367 85.4094 21.5195 85.4094 24.4883C85.4094 26.3633 85.3996 27.9551 85.3801 29.2637C85.3801 30.5723 85.3703 32.0273 85.3508 33.6289C85.3508 35.1328 85.5949 36.7051 86.0832 38.3457C86.591 39.9668 86.8449 41.0117 86.8449 41.4805C86.8449 42.3008 86.4543 43.0527 85.673 43.7363C84.9113 44.4004 84.0422 44.7324 83.0656 44.7324C82.2453 44.7324 81.4348 44.3516 80.634 43.5898C79.8332 42.8086 78.9836 41.6855 78.0852 40.2207ZM77.5578 28.6484C76.3859 29.0781 74.677 29.5371 72.4309 30.0254C70.2043 30.4941 68.6613 30.8457 67.802 31.0801C66.9426 31.2949 66.1223 31.7344 65.341 32.3984C64.5598 33.043 64.1691 33.9512 64.1691 35.123C64.1691 36.334 64.6281 37.3691 65.5461 38.2285C66.4641 39.0684 67.6652 39.4883 69.1496 39.4883C70.7316 39.4883 72.1867 39.1465 73.5148 38.4629C74.8625 37.7598 75.8488 36.8613 76.4738 35.7676C77.1965 34.5566 77.5578 32.5645 77.5578 29.791V28.6484ZM93.0699 12.916H93.9488V8.11133C93.9488 6.82227 93.9781 5.81641 94.0367 5.09375C94.1148 4.35156 94.3102 3.7168 94.6227 3.18945C94.9352 2.64258 95.3844 2.20312 95.9703 1.87109C96.5563 1.51953 97.2105 1.34375 97.9332 1.34375C98.9488 1.34375 99.8668 1.72461 100.687 2.48633C101.234 2.99414 101.576 3.61914 101.713 4.36133C101.869 5.08398 101.947 6.11914 101.947 7.4668V12.916H104.877C106.009 12.916 106.869 13.1895 107.455 13.7363C108.06 14.2637 108.363 14.9473 108.363 15.7871C108.363 16.8613 107.933 17.6133 107.074 18.043C106.234 18.4727 105.023 18.6875 103.441 18.6875H101.947V33.3945C101.947 34.6445 101.986 35.6113 102.064 36.2949C102.162 36.959 102.396 37.5059 102.767 37.9355C103.158 38.3457 103.783 38.5508 104.642 38.5508C105.111 38.5508 105.746 38.4727 106.546 38.3164C107.347 38.1406 107.972 38.0527 108.421 38.0527C109.066 38.0527 109.642 38.3164 110.15 38.8438C110.677 39.3516 110.941 39.9863 110.941 40.748C110.941 42.0371 110.238 43.0234 108.832 43.707C107.425 44.3906 105.404 44.7324 102.767 44.7324C100.267 44.7324 98.3727 44.3125 97.0836 43.4727C95.7945 42.6328 94.9449 41.4707 94.5348 39.9863C94.1441 38.502 93.9488 36.5195 93.9488 34.0391V18.6875H92.8941C91.7418 18.6875 90.8629 18.4141 90.2574 17.8672C89.652 17.3203 89.3492 16.627 89.3492 15.7871C89.3492 14.9473 89.6617 14.2637 90.2867 13.7363C90.9313 13.1895 91.859 12.916 93.0699 12.916Z" fill="#1D4323"/>
</svg>
