<svg width="42" height="30" viewBox="0 0 42 30" fill="none" xmlns="http://www.w3.org/2000/svg">
<path d="M2.71745 4.9349H38.8907C40.1119 4.9349 41.1082 3.9386 41.1082 2.71745C41.1082 1.49786 40.1216 0.500001 38.8907 0.500001L2.71745 0.5C1.4963 0.5 0.5 1.4963 0.5 2.71745C0.5 3.9386 1.4963 4.9349 2.71745 4.9349Z" fill="#1D4323" stroke="#1D4323"/>
<path d="M38.8907 12.5137H2.71745C1.4963 12.5137 0.5 13.51 0.5 14.7311C0.5 15.9523 1.4963 16.9486 2.71745 16.9486H38.8907C40.1119 16.9486 41.1082 15.9523 41.1082 14.7311C41.1082 13.51 40.1119 12.5137 38.8907 12.5137Z" fill="#1D4323" stroke="#1D4323"/>
<path d="M38.8907 24.5195H2.71745C1.49786 24.5195 0.5 25.5061 0.5 26.737C0.5 27.9679 1.49786 28.9544 2.71745 28.9544H38.8907C40.1103 28.9544 41.1082 27.9679 41.1082 26.737C41.1082 25.5061 40.1103 24.5195 38.8907 24.5195Z" fill="#1D4323" stroke="#1D4323"/>
</svg>
