<svg width="39" height="45" viewBox="0 0 39 45" fill="none" xmlns="http://www.w3.org/2000/svg">
<path d="M2.56229 31.1002L2.76909 31.2407L2.56229 31.1002C1.36437 32.8636 0.75 34.7155 0.75 36.6021C0.75 38.4818 1.37066 40.0647 2.60353 41.2878C4.00267 42.6759 6.01843 43.4107 8.35989 43.8029C10.7033 44.1954 13.4077 44.25 16.2125 44.25C16.7595 44.25 17.311 44.2479 17.8646 44.2458L17.877 44.2457C18.9783 44.2415 20.0796 44.2415 21.1809 44.2458L21.1971 44.2458C24.2959 44.2575 27.3315 44.2689 29.9615 43.91C32.5929 43.551 34.8639 42.816 36.395 41.297C37.6289 40.0728 38.25 38.4868 38.25 36.6021C38.25 34.7173 37.6399 32.867 36.45 31.105C35.3905 29.5361 33.9249 28.1158 32.0994 26.8807C28.4884 24.4377 23.9089 23.0379 19.529 23.0379C15.1473 23.0379 10.5587 24.4369 6.93341 26.8782L7.07305 27.0855L6.93341 26.8782C5.09986 28.113 3.62731 29.5325 2.56229 31.1002ZM9.98548 10.2551C9.98548 15.4975 14.2675 19.7603 19.529 19.7603C24.7907 19.7603 29.0726 15.4975 29.0726 10.2551C29.0726 5.01281 24.7907 0.75 19.529 0.75C14.2675 0.75 9.98548 5.01281 9.98548 10.2551ZM5.5793 38.3101L5.40323 38.4876L5.57929 38.3101C5.32494 38.0578 4.96743 37.6061 4.96743 36.6021C4.96743 34.3495 6.74715 32.0121 9.50809 30.2203C12.2559 28.4371 15.912 27.24 19.529 27.24C23.083 27.24 26.8034 28.377 29.7302 30.3572C32.5041 32.2338 34.0326 34.5195 34.0326 36.6021C34.0326 37.6133 33.674 38.0666 33.4192 38.3193C32.722 39.0111 31.2806 39.5238 29.0547 39.7912C26.7775 40.0646 24.0781 40.0547 21.1971 40.0437L21.1546 40.0435C20.6139 40.0415 20.0711 40.0394 19.529 40.0394C18.973 40.0394 18.4159 40.0416 17.8609 40.0437C15.374 40.0532 12.7383 40.063 10.4924 39.8414C9.36995 39.7306 8.35379 39.5629 7.50776 39.3118C6.65836 39.0597 6.00258 38.73 5.5793 38.3101ZM14.2029 10.2551C14.2029 7.33218 16.5914 4.95206 19.529 4.95206C22.4667 4.95206 24.8552 7.33218 24.8552 10.2551C24.8552 13.1781 22.4667 15.5582 19.529 15.5582C16.5914 15.5582 14.2029 13.1781 14.2029 10.2551Z" fill="#1D4323" stroke="#1D4323" stroke-width="0.5"/>
</svg>
